<svg xmlns="http://www.w3.org/2000/svg" viewBox="0 0 120 160" fill="none">
  <defs>
    <linearGradient id="g" x1="20" y1="10" x2="100" y2="150" gradientUnits="userSpaceOnUse">
      <stop stop-color="#6FA86B"/>
      <stop offset=".55" stop-color="#3F7A45"/>
      <stop offset="1" stop-color="#2B5A32"/>
    </linearGradient>
  </defs>
  <path d="M58 8C28 34 18 72 28 112c8 32 34 42 52 28 22-18 30-58 18-94C90 22 74 8 58 8Z" fill="url(#g)" opacity=".92"/>
  <path d="M62 22c-2 28-1 58 6 88" stroke="#1E3D24" stroke-width="3" stroke-linecap="round" opacity=".35"/>
  <path d="M60 48c-14 8-22 20-26 34M66 70c12 6 20 16 24 28M64 96c-12 6-18 14-20 24" stroke="#DCECCD" stroke-width="2" stroke-linecap="round" opacity=".45"/>
</svg>
